<svg xmlns="http://www.w3.org/2000/svg" role="img" width="153px" height="33px" viewBox="0 0 153 33" fill="" aria-labelledby="uniqueDescID" class="navbar-brand__logo d-block">
  <desc id="uniqueDescID">Segment logo</desc>
  <rect id="Rectangle" fill-rule="nonzero" x="11.4801619" y="10.9040891" width="18.2774089" height="3.17149798" rx="0.65"></rect>
  <rect id="Rectangle" fill-rule="nonzero" x="0.171376518" y="18.8287045" width="18.2774089" height="3.17149798" rx="0.65"></rect>
  <path d="M2.36417004,13.07417 C2.67611897,13.1547379 2.99528294,12.9713103 3.08271255,12.6612146 C5.04467267,6.51996379 11.3627807,2.88519448 17.6579757,4.27615385 C17.9631992,4.33905084 18.2643046,4.1522204 18.3434818,3.85080972 L18.8596761,1.92437247 C18.9004703,1.76810068 18.8757129,1.60194867 18.7911319,1.46435836 C18.7065509,1.32676804 18.5694752,1.22966157 18.4116194,1.19550607 C10.45136,-0.596288533 2.45091332,4.03138555 0.0351012146,11.8249798 C-0.00920477338,11.9772496 0.00959561536,12.1409406 0.087269795,12.2792007 C0.164943975,12.4174607 0.294963493,12.5186691 0.44805668,12.5600405 L2.36417004,13.07417 Z" id="Path"></path>
  <path d="M27.5689069,19.8218623 C27.2544356,19.7372887 26.9304339,19.9213805 26.8421053,20.2348178 C24.8843177,26.3802059 18.5649989,30.0201479 12.2668421,28.6302024 C11.9614222,28.5661963 11.6596066,28.7534674 11.581336,29.0555466 L11.0754656,30.9716599 C11.0340257,31.1282191 11.0584667,31.2949172 11.1431051,31.4329909 C11.2277436,31.5710647 11.3652041,31.6684825 11.5235223,31.7025911 C19.4837345,33.4899712 27.4817372,28.8628121 29.9000405,21.0710526 C29.9448986,20.9190401 29.9263128,20.755343 29.8485175,20.6172562 C29.7707221,20.4791695 29.6403433,20.3784544 29.487085,20.3380567 L27.5689069,19.8218623 Z" id="Path"></path>
  <circle id="Oval" fill-rule="nonzero" cx="24.0009717" cy="5.68433198" r="1.73854251"></circle>
  <circle id="Oval" fill-rule="nonzero" cx="5.93210526" cy="27.2178947" r="1.73854251"></circle>
  <path d="M72.3353441,13.2992308 C73.6176722,11.8910466 75.4421888,11.1001973 77.3465587,11.127085 C79.1759514,11.127085 80.6006478,11.692834 81.5008907,12.7789069 L81.5008907,11.878664 C81.5131716,11.6209391 81.7181806,11.4141475 81.9757895,11.3996356 L84.3874494,11.3996356 C84.6446412,11.4150716 84.8491395,11.6213481 84.8623482,11.878664 L84.8623482,25.2687449 C84.9371557,27.158199 84.3532681,29.0149615 83.2105263,30.5215385 C81.9097166,32.1031579 79.9357895,32.9042915 77.3424291,32.9042915 C73.7373279,32.9042915 70.8920648,30.6227126 70.4233603,27.3644939 C70.3999049,27.1219818 70.5526503,26.897203 70.7867611,26.8297166 L73.1426721,26.2763563 C73.155041,26.275368 73.1674691,26.275368 73.1798381,26.2763563 C73.3039551,26.2574613 73.4304779,26.2889258 73.5312865,26.3637569 C73.6320952,26.4385879 73.6988376,26.5505856 73.7166802,26.6748583 C73.9345969,28.5017286 75.5073393,29.862446 77.3465587,29.8153846 C80.162915,29.8153846 81.4761134,28.3700405 81.4761134,25.3492713 L81.4761134,24.1764777 C80.4298062,25.3488629 78.9170686,25.9963146 77.3465587,25.9439271 C73.3388259,25.9439271 70.4316194,22.8323077 70.4316194,18.5499595 C70.3960065,16.6246797 71.0741287,14.7543274 72.3353441,13.2992308 Z M119.100486,10.9433198 L119.226437,10.9433198 C123.535628,11.0011336 126.205385,14.0012551 126.205385,18.8018623 C126.205011,19.056379 126.191227,19.3106992 126.164089,19.5637652 C126.135999,19.7982942 125.93778,19.9752753 125.701579,19.9767206 L115.458219,19.9767206 C115.522293,22.1282309 117.301328,23.8300368 119.453563,23.7986235 C121.12175,23.9028303 122.641219,22.8421979 123.118543,21.2403644 C123.207663,21.0040389 123.466782,20.87948 123.707004,20.9574899 L125.744939,21.6801619 C125.864093,21.7190541 125.960991,21.8069385 126.011296,21.9217409 C126.067642,22.0325262 126.076584,22.1614437 126.036073,22.2789474 C125.086998,25.0905841 122.411478,26.9513778 119.445304,26.862753 C117.500646,26.8817045 115.629237,26.1218396 114.248259,24.7525506 C112.740967,23.1673626 111.936323,21.0414935 112.016235,18.8555466 C112.016235,13.900081 115.617206,10.932996 119.096356,10.932996 L119.100486,10.9433198 Z M61.1463158,10.9433198 C65.5319028,10.9433198 68.2574089,13.95583 68.2574089,18.8039271 C68.2570355,19.0584438 68.2432513,19.312764 68.2161134,19.56583 C68.1906947,19.8017418 67.9908766,19.9801509 67.7536032,19.9787854 L57.5102429,19.9787854 C57.5699239,22.1433744 59.3654222,23.8540315 61.5303644,23.8089474 C63.1989895,23.9147158 64.719336,22.8534711 65.1953441,21.2506883 C65.2818899,21.012019 65.5433614,20.8863293 65.7838057,20.9678138 L67.83,21.6884211 C67.9494267,21.7268415 68.0464945,21.8148798 68.0963563,21.93 C68.1437328,22.0443561 68.1437328,22.1728503 68.0963563,22.2872065 C67.1477265,25.097348 64.4743858,26.957792 61.5097166,26.8710121 C59.5616239,26.8920384 57.6862395,26.132069 56.3023482,24.7608097 C54.797874,23.1738526 53.9936948,21.0492126 54.0703239,18.8638057 C54.0703239,13.9083401 57.6712955,10.9412551 61.1525101,10.9412551 L61.1463158,10.9433198 Z M45.6315789,10.9433198 C47.5993117,10.9433198 49.1912551,11.4202834 50.3702429,12.3638866 C51.1663875,12.9989082 51.756909,13.8552362 52.0674899,14.8251012 L52.0674899,14.8251012 C52.087221,14.9083775 52.0727767,14.9960873 52.0273836,15.0686388 C51.9819904,15.1411903 51.9094302,15.1925388 51.8259109,15.2112146 L49.3832794,16.0185425 C49.2748901,16.0598204 49.1551099,16.0598204 49.0467206,16.0185425 C48.9534783,15.9754746 48.8834475,15.8941485 48.8546964,15.7955466 C48.6482186,15.0047368 47.9379352,13.677085 45.6274494,13.677085 C44.0148583,13.677085 43.0485425,14.6021053 43.0485425,15.4982186 C43.0485425,16.0928745 43.3561943,16.8589069 44.8097976,17.135587 L47.4940081,17.6393927 C50.4941296,18.2443725 52.2120243,19.8858704 52.2120243,22.1715789 L52.2120243,22.1323482 C52.2120243,24.4036032 50.0274899,26.8297166 45.9681377,26.8297166 C41.2604453,26.8297166 39.4104049,24.1661538 39.0697166,22.5948583 C39.0463707,22.4249975 39.1536699,22.2644921 39.3195547,22.2211336 L41.838583,21.4365182 C41.8836327,21.4282591 41.9298086,21.4282591 41.9748583,21.4365182 C42.0467768,21.4352242 42.1178387,21.4522791 42.181336,21.4860729 C42.2738304,21.530561 42.3418746,21.6137261 42.367166,21.7131984 C42.6851417,23.2246154 44.0499595,24.1248583 46.0135628,24.1248583 C47.8408907,24.1248583 48.672996,23.1688664 48.672996,22.3016599 C48.672996,21.4344534 47.9317409,20.7964372 46.6577733,20.5404049 L43.8331579,19.9911741 C41.198502,19.4935628 39.557004,17.8561943 39.557004,15.7253441 C39.557004,13.1319838 42.3423887,10.9433198 45.6315789,10.9433198 Z M149.396964,6.74149798 C149.663044,6.75788592 149.870302,6.97871917 149.869798,7.24530364 L149.869798,11.3748583 L152.518907,11.3748583 C152.782889,11.3943052 152.987246,11.6139671 152.987624,11.878664 L152.987624,14.0797166 C152.988767,14.3403996 152.77957,14.5532825 152.518907,14.5566802 L149.869798,14.5566802 L149.869798,21.9052227 C149.869798,23.1234413 150.352955,23.627247 151.595951,23.627247 C151.879375,23.6224966 152.162176,23.5990448 152.44251,23.5570445 C152.579801,23.5336074 152.720422,23.5721649 152.826559,23.6623482 C152.927779,23.7562895 152.986001,23.8876621 152.987624,24.025749 L152.987624,26.0905263 C152.989145,26.3015938 152.851186,26.4883437 152.648988,26.5489069 C152.0444,26.7184015 151.418517,26.7997662 150.790688,26.7904858 C148.135385,26.7904858 146.489757,25.082915 146.489757,22.328502 L146.489757,14.5876518 L144.197854,14.5876518 C143.941053,14.5721247 143.737204,14.3656054 143.725012,14.1086235 L143.725012,11.9034413 C143.723478,11.6364484 143.9313,11.4150137 144.197854,11.3996356 L144.79251,11.3996356 C145.513117,11.3996356 146.727206,11.1477328 146.727206,9.42983806 L146.727206,7.24530364 C146.725664,6.97831075 146.933486,6.75687609 147.20004,6.74149798 L149.396964,6.74149798 Z M99.6771255,13.4045344 C100.730726,11.7942875 102.555277,10.8588618 104.477733,10.9433198 L104.477733,10.9433198 C107.09587,10.9433198 109.74085,12.787166 109.74085,16.8155466 L109.74085,26.140081 C109.727642,26.3973968 109.523143,26.6036733 109.265951,26.6191093 L106.852227,26.6191093 C106.595842,26.6026659 106.392498,26.3966579 106.379393,26.140081 L106.379393,17.1149393 C106.379393,15.9731174 106.022186,14.0487449 103.604332,14.0487449 C101.836883,14.0487449 100.581498,15.4383401 100.581498,17.4535628 L100.581498,26.140081 C100.569314,26.3970629 100.365466,26.6035822 100.108664,26.6191093 L97.6639676,26.6191093 C97.4067758,26.6036733 97.2022775,26.3973968 97.1890688,26.140081 L97.1890688,17.1149393 C97.1931984,15.9731174 96.8380567,14.0404858 94.4181377,14.0404858 C92.5804858,14.0404858 91.3416194,15.4197571 91.3416194,17.4742105 L91.3416194,26.140081 C91.3285142,26.3966579 91.12517,26.6026659 90.8687854,26.6191093 L88.4571255,26.6191093 C88.2019402,26.6015686 88.0003986,26.3955878 87.9884211,26.140081 L87.9884211,11.8476923 C88.0013082,11.5925825 88.2023569,11.3871053 88.4571255,11.368664 L90.7779352,11.368664 C91.0343198,11.3851074 91.237664,11.5911154 91.2507692,11.8476923 L91.2507692,12.7087045 C92.2964012,11.5647979 93.7811145,10.9223738 95.3307692,10.9433198 C97.124723,10.8908069 98.799364,11.8391072 99.6771255,13.4045344 Z M136.452874,10.9433198 C138.016958,10.8764329 139.525047,11.5318923 140.543198,12.7210931 C141.480627,13.9551214 141.95753,15.4778523 141.891498,17.0261538 L141.891498,26.140081 C141.880546,26.3952526 141.679655,26.6014763 141.424858,26.6191093 L138.982227,26.6191093 C138.725448,26.6027624 138.521451,26.3969916 138.507328,26.140081 L138.507328,17.5134413 C138.507328,15.2566397 137.446032,14.1086235 135.43081,14.1086235 C134.541179,14.0799466 133.690988,14.4762938 133.140972,15.1761134 C132.594722,15.9619242 132.31863,16.9039683 132.354291,17.8603239 L132.354291,26.140081 C132.341186,26.3966579 132.137842,26.6026659 131.881457,26.6191093 L129.442955,26.6191093 C129.186571,26.6026659 128.983227,26.3966579 128.970121,26.140081 L128.970121,11.8373684 C128.980337,11.5791739 129.184977,11.3709603 129.442955,11.3562753 L131.825709,11.3562753 C132.080563,11.3728054 132.282337,11.5781343 132.294413,11.8332389 L132.294413,12.8408502 C133.317708,11.6060267 134.849564,10.9070318 136.452874,10.9433198 Z M77.7657085,14.1395951 C75.387085,14.1395951 73.8777328,15.8306478 73.8777328,18.5499595 C73.8777328,21.2692713 75.368502,22.9582591 77.7657085,22.9582591 C80.051417,22.9582591 81.5917409,21.1846154 81.5917409,18.5499595 C81.5917409,15.9153036 80.051417,14.1395951 77.7657085,14.1395951 Z M61.1710931,14.0033198 C59.3523275,13.9719188 57.8084212,15.3297692 57.6072874,17.1376518 L64.7720648,17.1376518 C64.6006883,15.2029555 63.2255466,14.0033198 61.1710931,14.0033198 L61.1710931,14.0033198 Z M119.139717,14.0033198 C117.32288,13.9750452 115.781952,15.3318486 115.58004,17.1376518 L122.746883,17.1376518 C122.569312,15.2029555 121.202429,14.0033198 119.137652,14.0033198 L119.139717,14.0033198 Z" id="Shape"></path>
  <polygon id="Path" fill-rule="nonzero" points="43.1104858 1.27809717 43.1104858 6.08076923 41.7497976 6.08076923 41.7497976 1.27809717 39.8687854 1.27809717 39.8687854 0.113562753 45.0121457 0.113562753 45.0121457 1.27809717"></polygon>
  <polygon id="Path" fill-rule="nonzero" points="53.5045749 6.101417 52.0902024 6.101417 50.7935223 1.7034413 49.4741296 6.101417 48.088664 6.101417 46.3336032 0.113562753 47.7789474 0.113562753 48.8918623 4.42688259 50.147247 0.113562753 51.5925911 0.113562753 52.8314575 4.42688259 53.9092713 0.113562753 55.2389879 0.113562753"></polygon>
  <polygon id="Path" fill-rule="nonzero" points="57.1117409 6.08076923 57.1117409 0.113562753 58.4517814 0.113562753 58.4517814 6.08076923"></polygon>
  <polygon id="Path" fill-rule="nonzero" points="60.8634413 6.08076923 60.8634413 0.113562753 62.2241296 0.113562753 62.2241296 4.90591093 64.5531984 4.90591093 64.5531984 6.08076923"></polygon>
  <polygon id="Path" fill-rule="nonzero" points="66.5808097 6.08076923 66.5808097 0.113562753 67.9311741 0.113562753 67.9311741 6.08076923"></polygon>
  <path d="M72.9836842,6.19433198 C71.3318623,6.19433198 70.0104049,5.0091498 70.0104049,3.10748988 C70.0104049,1.20582996 71.3504453,0.0103238866 72.9940081,0.0103238866 C74.6375709,0.0103238866 75.9652227,1.19550607 75.9652227,3.10748988 C75.9652227,5.01947368 74.6355061,6.19433198 72.9836842,6.19433198 Z M72.9836842,1.10259109 C71.9512955,1.10259109 71.3504453,1.95327935 71.3504453,3.09716599 C71.3504453,4.24105263 71.9698785,5.10206478 72.9836842,5.10206478 C73.9974899,5.10206478 74.5942105,4.23072874 74.5942105,3.10748988 C74.5942105,1.98425101 73.9912955,1.10259109 72.9940081,1.10259109 L72.9836842,1.10259109 Z" id="Shape" fill-rule="nonzero"></path>
</svg>
